# xmcd
#
# Track frame offsets: 
#        150
#        24734
#        39072
#        54418
#        72848
#        84992
#        104163
#        122074
#        133634
#        147071
#        172199
#        191180
#        206136
#        229549
#        248092
#        272974
#        292248
#        307651
#
# Disc length: 4375 seconds
#
# Revision: 0
# Processed by: cddbd v1.5.2PL0 Copyright (c) Steve Scherf et al.
# Submitted via: ExactAudioCopy v1.3
#
DISCID=0b111512
DTITLE=Stare Dobre Małżeństwo - Złota kolekcja: Zgodliwość
DYEAR=2012
DGENRE=Polka
TTITLE0=Tymbark
TTITLE1=Makatka dla Janka Rybowicza 
TTITLE2=Walc nad Missisipi 
TTITLE3=Confiteor
TTITLE4=Prefacja
TTITLE5=Zgodliwość
TTITLE6=A ona chciała 
TTITLE7=Akt miłosny albo życie 
TTITLE8=Wyjście z obłędu 
TTITLE9=Tryumf sprawiedliwości 
TTITLE10=Wiem
TTITLE11=Do przyjaciela
TTITLE12=Chciałby mieć serce 
TTITLE13=Blues nocy bieszczadzkiej 
TTITLE14=Jagodowe wzgórze 
TTITLE15=A ty słońce śnij 
TTITLE16=Jak owad
TTITLE17=Jakże blisko
EXTD=
EXTT0=
EXTT1=
EXTT2=
EXTT3=
EXTT4=
EXTT5=
EXTT6=
EXTT7=
EXTT8=
EXTT9=
EXTT10=
EXTT11=
EXTT12=
EXTT13=
EXTT14=
EXTT15=
EXTT16=
EXTT17=
PLAYORDER=
